<?xml version="1.0" standalone="no"?>
<!DOCTYPE svg PUBLIC "-//W3C//DTD SVG 20010904//EN"
 "http://www.w3.org/TR/2001/REC-SVG-20010904/DTD/svg10.dtd">
<svg version="1.0" xmlns="http://www.w3.org/2000/svg"
 width="400.000000pt" height="400.000000pt" viewBox="0 0 400.000000 400.000000"
 preserveAspectRatio="xMidYMid meet">
<metadata>
Created by potrace 1.14, written by Peter Selinger 2001-2017
</metadata>
<g transform="translate(0.000000,400.000000) scale(0.100000,-0.100000)"
fill="#000000" stroke="none">
<path d="M1915 3002 c-16 -11 -36 -26 -43 -35 -7 -8 -32 -19 -55 -22 -67 -12
-79 -14 -132 -26 -27 -6 -66 -19 -85 -28 -19 -9 -53 -18 -75 -19 -97 -7 -228
-53 -208 -73 5 -5 35 -11 67 -14 33 -2 61 -6 63 -8 2 -2 -19 -7 -46 -10 -56
-7 -142 -44 -183 -80 -27 -23 -36 -46 -20 -48 12 -2 84 -7 122 -8 l34 -1 -36
-37 c-45 -46 -77 -115 -78 -165 0 -50 13 -55 52 -17 32 30 87 64 93 57 6 -6
13 -156 8 -181 -4 -21 -11 -25 -54 -29 -123 -12 -189 -127 -159 -274 17 -80
43 -129 101 -185 27 -26 49 -51 49 -54 0 -4 -13 -26 -30 -50 -46 -67 -42 -78
28 -73 l57 4 2 -57 c0 -32 8 -71 16 -87 15 -30 15 -30 -32 -63 -52 -37 -101
-85 -181 -179 -30 -35 -72 -83 -94 -107 l-38 -43 -28 20 c-16 11 -76 42 -134
69 -154 72 -200 105 -227 163 -12 26 -28 48 -36 48 -7 0 -13 5 -13 10 0 19
-65 114 -107 156 -45 45 -85 59 -123 41 -29 -14 -50 -51 -43 -77 3 -10 20 -36
37 -57 37 -44 49 -69 33 -70 -22 -1 -41 -8 -97 -36 -30 -16 -88 -37 -129 -48
-92 -24 -155 -60 -169 -96 -6 -15 -9 -50 -7 -78 2 -27 4 -57 5 -66 0 -9 16
-24 35 -33 19 -9 35 -23 35 -31 0 -20 40 -45 70 -45 14 0 63 21 110 46 106 57
174 81 248 89 67 8 68 7 217 -130 187 -174 273 -225 348 -211 50 9 138 71 235
166 75 72 102 94 89 73 -20 -32 -30 -297 -15 -390 17 -112 40 -189 85 -281 34
-73 59 -108 111 -160 105 -105 208 -150 362 -159 259 -14 494 133 593 372 49
121 62 197 62 375 0 91 -4 185 -8 210 l-8 45 77 -75 c43 -41 81 -77 84 -80 24
-24 94 -73 122 -84 29 -13 31 -15 13 -21 -108 -37 -188 -102 -229 -188 -26
-52 -38 -131 -29 -180 5 -27 6 -27 94 -27 l89 0 0 47 c0 127 109 215 265 215
194 0 339 -142 339 -332 1 -94 -15 -126 -92 -182 -31 -23 -62 -49 -69 -57 -30
-38 -19 -41 156 -41 l169 0 19 53 c19 55 25 226 11 299 -38 187 -193 344 -391
395 -85 21 -85 21 -146 22 l-54 1 39 26 c49 33 124 95 189 155 162 153 162
152 239 145 67 -7 111 -23 231 -85 54 -28 110 -51 124 -51 31 1 61 21 61 43 0
8 13 20 29 25 34 12 51 38 50 78 -1 16 0 43 2 61 1 18 -6 44 -15 58 -20 30
-122 81 -180 90 -21 3 -71 21 -110 39 -39 19 -79 37 -88 40 -26 8 -22 21 16
64 50 55 53 113 7 136 -59 31 -136 -21 -212 -144 -18 -30 -39 -59 -46 -65 -6
-5 -21 -29 -33 -52 -20 -39 -42 -59 -100 -92 -47 -26 -181 -91 -188 -91 -4 0
-27 -14 -52 -30 l-45 -30 -29 33 c-15 17 -49 57 -75 87 -55 65 -188 198 -221
221 -23 15 -24 16 -7 51 10 20 17 60 17 90 l0 55 54 -5 c35 -3 56 0 61 8 4 6
-9 35 -29 66 l-37 55 23 19 c13 11 26 19 30 20 16 0 87 124 98 172 16 64 16
148 1 177 -11 20 -10 21 16 19 40 -2 71 10 83 33 23 42 -40 102 -208 200 l-96
55 -2 45 c-11 272 -154 413 -463 453 -27 4 -55 15 -70 30 -55 50 -113 60 -166
28z m630 -1532 c3 -5 1 -10 -4 -10 -6 0 -11 5 -11 10 0 6 2 10 4 10 3 0 8 -4
11 -10z"/>
</g>
</svg>
